<svg width="32" height="32" viewBox="0 0 32 32" fill="none" xmlns="http://www.w3.org/2000/svg">
<path d="M26 12.6668V11.6002C26 10.1067 26 9.35995 25.7094 8.78952C25.4537 8.28776 25.0457 7.87981 24.544 7.62415C23.9735 7.3335 23.2268 7.3335 21.7333 7.3335H10.2667C8.77319 7.3335 8.02646 7.3335 7.45603 7.62415C6.95426 7.87981 6.54631 8.28776 6.29065 8.78952C6 9.35995 6 10.1067 6 11.6002V12.6668M26 12.6668V21.7335C26 23.227 26 23.9737 25.7094 24.5441C25.4537 25.0459 25.0457 25.4539 24.544 25.7095C23.9735 26.0002 23.2268 26.0002 21.7333 26.0002H10.2667C8.77319 26.0002 8.02646 26.0002 7.45603 25.7095C6.95426 25.4539 6.54631 25.0459 6.29065 24.5441C6 23.9737 6 23.227 6 21.7335V12.6668M26 12.6668H6" stroke="#FFFFFA" stroke-width="1.33333"/>
<path d="M11.3335 4.6665L11.3335 9.99984M20.6668 4.6665L20.6668 9.99984" stroke="#FFFFFA" stroke-width="1.33333" stroke-linecap="round"/>
<path d="M16 22.6665L16 15.9998" stroke="#FFFFFA" stroke-width="1.33333" stroke-linecap="round"/>
<path d="M19.3335 19.3335L12.6668 19.3335" stroke="#FFFFFA" stroke-width="1.33333" stroke-linecap="round"/>
</svg>
