<svg width="28" height="28" viewBox="0 0 28 28" fill="none" xmlns="http://www.w3.org/2000/svg">
<path d="M3.15 23.9503C3.60914 23.4361 6.69379 21.0135 8.227 19.8192C8.78541 19.3843 9.47036 19.1503 10.1782 19.1503C11.8897 19.1503 15.1879 19.1503 16.9077 19.1503C17.6238 19.1503 18.3155 19.3942 18.8921 19.819C20.8718 21.2774 22.7277 22.3641 24.75 23.9503M5.55 26.35H21.55C24.201 26.35 26.35 24.201 26.35 21.55V5.55C26.35 2.89903 24.201 0.75 21.55 0.75H5.55C2.89903 0.75 0.75 2.89903 0.75 5.55V21.55C0.75 24.201 2.89903 26.35 5.55 26.35ZM18.1347 9.91272C18.1347 7.47071 16.0732 5.47544 13.55 5.47544C11.0268 5.47544 8.96527 7.47071 8.96527 9.91272C8.96527 12.3547 11.0268 14.35 13.55 14.35C16.0732 14.35 18.1347 12.3547 18.1347 9.91272Z" stroke="#0A2BEF" stroke-width="1.5"/>
</svg>
