<svg width="21" height="28" viewBox="0 0 21 28" fill="none" xmlns="http://www.w3.org/2000/svg">
<path d="M7.15 19.95H13.55M3.41667 26.35H17.2833C18.7561 26.35 19.95 25.1561 19.95 23.6833V3.41667C19.95 1.94391 18.7561 0.75 17.2833 0.75H3.41667C1.94391 0.75 0.75 1.94391 0.75 3.41667V23.6833C0.75 25.1561 1.94391 26.35 3.41667 26.35ZM13.55 8.75C13.55 10.5173 12.1173 11.95 10.35 11.95C8.58269 11.95 7.15 10.5173 7.15 8.75C7.15 6.98269 8.58269 5.55 10.35 5.55C12.1173 5.55 13.55 6.98269 13.55 8.75Z" stroke="#0A2BEF" stroke-width="1.5" stroke-linecap="round" stroke-linejoin="round"/>
</svg>
