<svg width="32" height="32" viewBox="0 0 32 32" fill="none" xmlns="http://www.w3.org/2000/svg">
<path d="M4 11.3335C4 9.46973 4 8.53785 4.30448 7.80276C4.71046 6.82265 5.48915 6.04395 6.46927 5.63798C7.20435 5.3335 8.13623 5.3335 10 5.3335H22C23.8638 5.3335 24.7957 5.3335 25.5307 5.63798C26.5108 6.04395 27.2895 6.82265 27.6955 7.80276C28 8.53785 28 9.46973 28 11.3335V12.3335C28 12.8858 27.5523 13.3335 27 13.3335H26.6667C25.1939 13.3335 24 14.5274 24 16.0002C24 17.4729 25.1939 18.6668 26.6667 18.6668H27C27.5523 18.6668 28 19.1145 28 19.6668V20.6668C28 22.5306 28 23.4625 27.6955 24.1976C27.2895 25.1777 26.5108 25.9564 25.5307 26.3623C24.7957 26.6668 23.8638 26.6668 22 26.6668H10C8.13623 26.6668 7.20435 26.6668 6.46927 26.3623C5.48915 25.9564 4.71046 25.1777 4.30448 24.1976C4 23.4625 4 22.5306 4 20.6668V19.6668C4 19.1145 4.44772 18.6668 5 18.6668H5.33333C6.80609 18.6668 8 17.4729 8 16.0002C8 14.5274 6.80609 13.3335 5.33333 13.3335H5C4.44772 13.3335 4 12.8858 4 12.3335V11.3335Z" stroke="#FFFFFA" stroke-width="1.33333"/>
<path d="M15.4092 14.2516C15.6333 13.6716 15.7454 13.3816 15.9275 13.3414C15.9754 13.3309 16.0249 13.3309 16.0728 13.3414C16.2549 13.3816 16.367 13.6716 16.5911 14.2516C16.7186 14.5814 16.7824 14.7463 16.9016 14.8584C16.9351 14.8899 16.9714 14.9179 17.0101 14.9421C17.1479 15.0283 17.32 15.0443 17.6642 15.0763C18.2468 15.1305 18.5381 15.1575 18.6271 15.3299C18.6455 15.3656 18.658 15.4043 18.6641 15.4443C18.6936 15.6374 18.4795 15.8396 18.0512 16.244L17.9322 16.3563C17.732 16.5454 17.6319 16.6399 17.5739 16.7579C17.5392 16.8286 17.5159 16.9048 17.505 16.9834C17.4868 17.1145 17.5161 17.2516 17.5748 17.5259L17.5957 17.6239C17.7009 18.1158 17.7534 18.3617 17.6878 18.4826C17.6289 18.5912 17.5203 18.6607 17.4003 18.6666C17.2667 18.6733 17.0786 18.5141 16.7022 18.1959C16.4542 17.9862 16.3303 17.8813 16.1926 17.8404C16.0669 17.8029 15.9335 17.8029 15.8077 17.8404C15.6701 17.8813 15.5461 17.9862 15.2981 18.1959C14.9218 18.5141 14.7336 18.6733 14.6 18.6666C14.4801 18.6607 14.3715 18.5912 14.3125 18.4826C14.2469 18.3617 14.2995 18.1158 14.4046 17.6239L14.4256 17.5259C14.4842 17.2516 14.5135 17.1145 14.4953 16.9834C14.4844 16.9048 14.4611 16.8286 14.4264 16.7579C14.3685 16.6399 14.2683 16.5454 14.0681 16.3563L13.9492 16.244C13.5208 15.8396 13.3067 15.6374 13.3362 15.4443C13.3423 15.4043 13.3548 15.3656 13.3732 15.3299C13.4622 15.1575 13.7535 15.1305 14.3361 15.0763C14.6803 15.0443 14.8524 15.0283 14.9903 14.9421C15.0289 14.9179 15.0652 14.8899 15.0987 14.8584C15.218 14.7463 15.2817 14.5814 15.4092 14.2516Z" fill="#FFFFFA" stroke="#FFFFFA" stroke-width="1.33333"/>
</svg>
