<svg width="235" height="422" viewBox="0 0 235 422" fill="none" xmlns="http://www.w3.org/2000/svg">
<path d="M172.137 90.0098L75.6646 181.23C75.6588 181.193 75.6512 181.145 75.6421 181.085C75.6182 180.928 75.5841 180.695 75.5396 180.391C75.4504 179.782 75.3223 178.885 75.1694 177.736C74.8637 175.439 74.456 172.131 74.0483 168.09C73.233 160.008 72.4185 148.993 72.4185 137.267C72.4185 125.539 73.2331 113.101 75.6782 102.169C78.1236 91.2358 82.1979 81.8168 88.7095 76.1201C101.757 64.7061 122.631 45.685 140.244 29.5176C149.05 21.434 157.04 14.0633 162.83 8.71387C165.724 6.03913 168.069 3.86898 169.69 2.36816C170.5 1.61801 171.129 1.03522 171.556 0.639648C171.769 0.441983 171.932 0.290916 172.042 0.189453C172.08 0.153547 172.112 0.123016 172.137 0.0996094V90.0098Z" fill="#0A2BEF" stroke="#DDE1F9" stroke-width="0.0968811"/>
<path d="M356.399 93.3057L356.403 93.3145L356.404 93.3154C356.405 93.3163 356.405 93.3177 356.405 93.3193C356.407 93.3231 356.409 93.329 356.412 93.3369C356.418 93.3528 356.426 93.3771 356.436 93.4102C356.455 93.4768 356.479 93.5795 356.502 93.7188C356.547 93.9972 356.582 94.425 356.54 95.0186C356.456 96.2062 356.064 98.0582 354.828 100.704C352.356 105.996 346.511 114.463 333.016 127.147C319.512 139.834 284.407 173.516 252.678 204.026C236.813 219.281 221.793 233.743 210.738 244.392C205.211 249.716 200.675 254.086 197.521 257.126C195.945 258.646 194.713 259.833 193.876 260.641C193.457 261.044 193.137 261.353 192.922 261.561C192.814 261.664 192.732 261.743 192.678 261.796C192.651 261.822 192.63 261.841 192.616 261.854L192.597 261.874C192.597 261.875 192.6 261.881 192.629 261.91L192.596 261.875L192.56 261.909L192.595 261.944L356.501 421.949H246.637C246.635 421.949 246.631 421.95 246.627 421.95C246.618 421.95 246.604 421.951 246.586 421.951C246.55 421.952 246.496 421.952 246.424 421.951C246.28 421.949 246.064 421.942 245.78 421.921C245.213 421.878 244.371 421.78 243.276 421.555C241.087 421.105 237.884 420.149 233.837 418.128C225.743 414.086 214.271 405.779 200.771 388.72C187.266 371.659 169.711 353.943 155.534 340.493C148.445 333.768 142.201 328.109 137.729 324.131C135.492 322.142 133.698 320.574 132.464 319.503C131.847 318.967 131.37 318.556 131.047 318.278C130.885 318.14 130.762 318.033 130.68 317.963C130.638 317.928 130.607 317.902 130.586 317.884C130.576 317.875 130.568 317.868 130.562 317.863C130.56 317.861 130.558 317.859 130.557 317.858L130.556 317.857L130.555 317.856L130.541 317.845L130.521 317.846L0.129883 322.212L356.399 0.109375V93.3057Z" fill="#0A2BEF" stroke="#DDE1F9" stroke-width="0.0968811"/>
</svg>
